<svg width="55" height="57" viewBox="0 0 55 57" fill="none" xmlns="http://www.w3.org/2000/svg">
<path d="M23.5812 9.1675L4.17082 42.75C3.77062 43.4683 3.55887 44.2826 3.55663 45.112C3.55439 45.9414 3.76174 46.7569 4.15805 47.4775C4.55436 48.1981 5.12582 48.7985 5.81557 49.2191C6.50532 49.6398 7.28932 49.8659 8.08957 49.875H46.9104C47.7107 49.8659 48.4947 49.6398 49.1844 49.2191C49.8742 48.7985 50.4456 48.1981 50.8419 47.4775C51.2382 46.7569 51.4456 45.9414 51.4433 45.112C51.4411 44.2826 51.2294 43.4683 50.8292 42.75L31.4187 9.1675C31.0102 8.4695 30.435 7.89241 29.7486 7.4919C29.0621 7.09139 28.2877 6.88098 27.5 6.88098C26.7123 6.88098 25.9378 7.09139 25.2514 7.4919C24.565 7.89241 23.9898 8.4695 23.5812 9.1675Z" stroke="#1E1E1E" stroke-width="4" stroke-linecap="round" stroke-linejoin="round"/>
</svg>
